<?xml version="1.0" encoding="UTF-8" standalone="no"?>
<svg
   xmlns:dc="http://purl.org/dc/elements/1.1/"
   xmlns:cc="http://creativecommons.org/ns#"
   xmlns:rdf="http://www.w3.org/1999/02/22-rdf-syntax-ns#"
   xmlns:svg="http://www.w3.org/2000/svg"
   xmlns="http://www.w3.org/2000/svg"
   xmlns:sodipodi="http://sodipodi.sourceforge.net/DTD/sodipodi-0.dtd"
   xmlns:inkscape="http://www.inkscape.org/namespaces/inkscape"
   version="1.1"
   id="svg885"
   width="512"
   height="512"
   viewBox="0 0 512 512"
   sodipodi:docname="virus.svg"
   inkscape:version="1.0.1 (3bc2e813f5, 2020-09-07)"
   inkscape:export-filename="/home/miga/appicon.png"
   inkscape:export-xdpi="24.000002"
   inkscape:export-ydpi="24.000002">
  <metadata
     id="metadata891">
    <rdf:RDF>
      <cc:Work
         rdf:about="">
        <dc:format>image/svg+xml</dc:format>
        <dc:type
           rdf:resource="http://purl.org/dc/dcmitype/StillImage" />
        <dc:title></dc:title>
      </cc:Work>
    </rdf:RDF>
  </metadata>
  <defs
     id="defs889" />
  <sodipodi:namedview
     pagecolor="#ffffff"
     bordercolor="#666666"
     borderopacity="1"
     objecttolerance="10"
     gridtolerance="10"
     guidetolerance="10"
     inkscape:pageopacity="0"
     inkscape:pageshadow="2"
     inkscape:window-width="1920"
     inkscape:window-height="1015"
     id="namedview887"
     showgrid="false"
     inkscape:zoom="1.097949"
     inkscape:cx="285.35416"
     inkscape:cy="269.9857"
     inkscape:window-x="0"
     inkscape:window-y="0"
     inkscape:window-maximized="1"
     inkscape:current-layer="g893"
     inkscape:snap-global="false" />
  <g
     inkscape:groupmode="layer"
     inkscape:label="Image"
     id="g893">
    <path
       id="path899"
       style="fill:#eb5569;fill-opacity:1;fill-rule:evenodd;stroke:none;stroke-width:0.945128;stroke-linejoin:round;paint-order:stroke fill markers"
       d="M 204.85352 22.349609 A 35.293288 35.293288 0 0 0 169.63281 57.642578 A 35.293288 35.293288 0 0 0 192.79102 90.783203 C 196.37982 97.041985 205.43229 115.79407 199.37109 136.85352 A 131.70423 131.70423 0 0 0 156.13672 163.88086 C 149.70259 162.42855 135.99208 158.29614 127.38867 148.19141 A 27.545981 27.545981 0 0 0 127.45508 146.30664 A 27.545981 27.545981 0 0 0 99.908203 118.75977 A 27.545981 27.545981 0 0 0 72.363281 146.30664 A 27.545981 27.545981 0 0 0 99.908203 173.85352 A 27.545981 27.545981 0 0 0 102.64453 173.7168 C 109.19545 176.8371 124.48364 185.70589 128.04102 201.85352 A 131.70423 131.70423 0 0 0 114.54297 259.93359 A 131.70423 131.70423 0 0 0 115.75977 277.79883 C 100.57748 296.22957 75.117333 301.07952 68.099609 302.0957 A 33.571664 33.571664 0 0 0 43.095703 290.92383 A 33.571664 33.571664 0 0 0 42.9375 290.92383 A 33.571664 33.571664 0 0 0 9.5234375 324.49414 A 33.571664 33.571664 0 0 0 43.095703 358.06641 A 33.571664 33.571664 0 0 0 75.640625 332.72266 C 82.917346 330.08702 112.24044 320.26645 131.94141 325.35742 A 131.70423 131.70423 0 0 0 171.06641 368.07227 C 170.7608 379.20289 167.83529 401.27747 151.63281 424.20703 A 24.963545 24.963545 0 0 0 132.61914 448.45117 A 24.963545 24.963545 0 0 0 157.58203 473.41406 A 24.963545 24.963545 0 0 0 182.54492 448.45117 A 24.963545 24.963545 0 0 0 179.98047 437.42969 C 183.96689 426.37582 195.24483 399.20532 213.37695 387.4707 A 131.70423 131.70423 0 0 0 246.24609 391.63867 A 131.70423 131.70423 0 0 0 254.19922 391.39648 C 258.97541 396.99177 275.22674 417.60478 276.58789 440.47656 A 29.267604 29.267604 0 0 0 266.90625 462.22461 A 29.267604 29.267604 0 0 0 296.17383 491.49219 A 29.267604 29.267604 0 0 0 325.44141 462.22461 A 29.267604 29.267604 0 0 0 306.83203 434.9668 C 304.62871 425.50588 297.86125 394.18535 301.25781 379.59766 A 131.70423 131.70423 0 0 0 340.86328 351.55078 C 349.41846 351.51246 364.64656 353.35654 373.88867 365.65625 A 26.68517 26.68517 0 0 0 399.4707 384.75195 A 26.68517 26.68517 0 0 0 426.15625 358.06641 A 26.68517 26.68517 0 0 0 399.4707 331.38086 A 26.68517 26.68517 0 0 0 399.36133 331.38086 A 26.68517 26.68517 0 0 0 387.41211 334.26172 C 380.33777 331.26502 369.52971 325.09591 366.14648 314.42969 A 131.70423 131.70423 0 0 0 377.22266 273.76758 C 386.92466 268.01803 416.36771 252.03246 427.875 262.46094 L 427.85938 262.36328 A 39.597346 39.597346 0 0 0 458.00586 276.28906 A 39.597346 39.597346 0 0 0 497.60352 236.69141 A 39.597346 39.597346 0 0 0 458.00586 197.09375 A 39.597346 39.597346 0 0 0 418.875 230.63867 C 409.8258 231.7633 385.8571 234.29626 374.74023 231.03711 A 131.70423 131.70423 0 0 0 352.73438 182.43164 C 355.14086 172.16917 362.1475 150.01205 379.61133 136.82227 A 26.68517 26.68517 0 0 0 380.5332 136.83789 A 26.68517 26.68517 0 0 0 407.21875 110.15234 A 26.68517 26.68517 0 0 0 380.5332 83.46875 A 26.68517 26.68517 0 0 0 380.42383 83.46875 A 26.68517 26.68517 0 0 0 353.84766 110.15234 A 26.68517 26.68517 0 0 0 354.97461 117.82422 C 349.96983 124.87669 334.81335 145.02538 320.625 151.24219 A 131.70423 131.70423 0 0 0 246.24609 128.22852 A 131.70423 131.70423 0 0 0 245.48242 128.23242 C 241.43958 121.62325 228.80136 99.465328 230.08789 82.392578 A 35.293288 35.293288 0 0 0 240.2207 57.642578 A 35.293288 35.293288 0 0 0 204.92773 22.349609 A 35.293288 35.293288 0 0 0 204.85352 22.349609 z M 84.279297 26.652344 A 24.102732 24.102732 0 0 0 60.310547 50.755859 A 24.102732 24.102732 0 0 0 84.412109 74.857422 A 24.102732 24.102732 0 0 0 108.51562 50.755859 A 24.102732 24.102732 0 0 0 84.412109 26.652344 A 24.102732 24.102732 0 0 0 84.279297 26.652344 z M 73.003906 396.80273 A 18.937862 18.937862 0 0 0 54.285156 415.74023 A 18.937862 18.937862 0 0 0 73.222656 434.67969 A 18.937862 18.937862 0 0 0 92.160156 415.74023 A 18.937862 18.937862 0 0 0 73.222656 396.80273 A 18.937862 18.937862 0 0 0 73.003906 396.80273 z M 410.66211 419.18359 A 25.824357 25.824357 0 0 0 384.83594 445.00781 A 25.824357 25.824357 0 0 0 410.66211 470.83203 A 25.824357 25.824357 0 0 0 436.48633 445.00781 A 25.824357 25.824357 0 0 0 410.66211 419.18359 z " />
    <circle
       style="fill:#f58a97;fill-opacity:1;fill-rule:evenodd;stroke:none;stroke-width:0.945128;stroke-linejoin:round;paint-order:stroke fill markers"
       id="path946"
       cx="250.55038"
       cy="260.79373"
       r="98.132561" />
    <path
       id="path939"
       style="fill:#f07281;fill-opacity:1;fill-rule:evenodd;stroke:none;stroke-width:0.924228;stroke-linejoin:round;paint-order:stroke fill markers"
       d="m 246.17201,162.30572 a 98.48785,98.48785 0 0 0 -98.48802,98.48802 98.48785,98.48785 0 0 0 98.48802,98.48802 98.48785,98.48785 0 0 0 15.71188,-1.26178 98.48785,98.48785 0 0 1 -82.77616,-97.22624 98.48785,98.48785 0 0 1 82.77434,-97.22442 98.48785,98.48785 0 0 0 -15.71006,-1.2636 z" />
    <path
       id="path1001"
       style="fill:#eb5569;fill-opacity:1;fill-rule:evenodd;stroke:none;stroke-linejoin:round;paint-order:stroke fill markers"
       d="m 229.25392,198.55273 a 24.591307,24.591307 0 0 0 -24.32617,24.58985 24.591307,24.591307 0 0 0 24.5918,24.5918 24.591307,24.591307 0 0 0 24.58984,-24.5918 24.591307,24.591307 0 0 0 -24.58984,-24.58985 24.591307,24.591307 0 0 0 -0.26563,0 z m 78.49414,37.3418 a 14.572626,14.572626 0 0 0 -14.47461,14.57227 14.572626,14.572626 0 0 0 14.57422,14.57226 14.572626,14.572626 0 0 0 14.57227,-14.57226 14.572626,14.572626 0 0 0 -14.57227,-14.57227 14.572626,14.572626 0 0 0 -0.0996,0 z m -56.37109,53.73633 a 16.394203,16.394203 0 0 0 -16.39258,16.39453 16.394203,16.394203 0 0 0 16.39258,16.39453 16.394203,16.394203 0 0 0 16.39453,-16.39453 16.394203,16.394203 0 0 0 -16.39453,-16.39453 z" />
  </g>
</svg>
